Coordinates
version=1
nRows=17
nColumns=24
inDegrees=yes

Units are S.I. units (second, meters, Newtons, ...)
Angles are in degrees.

endheader
time	pelvis_tilt	pelvis_list	pelvis_rotation	pelvis_tx	pelvis_ty	pelvis_tz	hip_flexion_r	hip_adduction_r	hip_rotation_r	knee_angle_r	ankle_angle_r	subtalar_angle_r	mtp_angle_r	hip_flexion_l	hip_adduction_l	hip_rotation_l	knee_angle_l	ankle_angle_l	subtalar_angle_l	mtp_angle_l	lumbar_extension	lumbar_bending	lumbar_rotation
      0.69600000	      0.55706416	     -2.34853477	     -1.65437655	     -0.49875240	      1.06364940	      0.32362784	     12.58829877	      7.25890432	     -4.50137161	    -17.87543567	      6.84078706	     -3.71684241	     -0.76769799	     18.08980998	     -4.07092034	     -0.43315695	    -71.36592995	      7.84137127	      2.17288085	      1.25188465	      3.47489547	      5.49452771	     -0.31203761
      0.70016667	      0.57049155	     -2.25342893	     -1.73206534	     -0.49366561	      1.06444775	      0.32396346	     12.20207407	      7.18416627	     -4.39768908	    -17.75179973	      7.00131982	     -3.62153669	     -0.77419865	     18.72480353	     -3.92577861	     -0.31449615	    -71.24629359	      8.27651850	      1.61447279	      1.18249613	      3.41530164	      5.36026456	     -0.17046617
      0.70433333	      0.58668980	     -2.18334183	     -1.77644770	     -0.48856405	      1.06523374	      0.32437128	     11.79301993	      7.14775501	     -4.25349673	    -17.57722739	      7.10921671	     -3.56500718	     -0.77814118	     19.34767570	     -3.81590136	     -0.17421787	    -71.05487220	      8.61956257	      1.23254407	      1.13945552	      3.35691537	      5.20970651	     -0.07524484
      0.70850000	      0.60428167	     -2.04889381	     -1.88702741	     -0.48348301	      1.06602655	      0.32460262	     11.40821491	      7.02075475	     -4.15989294	    -17.47050953	      7.25779470	     -3.53728600	     -0.78622120	     19.92758035	     -3.62195295	     -0.11229600	    -70.75857966	      9.07084412	      0.68797904	      1.06406578	      3.30892862	      5.11102311	      0.04910909
      0.71266667	      0.62132143	     -1.98094837	     -1.91531806	     -0.47838878	      1.06677112	      0.32495969	     10.98976283	      6.98457000	     -4.00623323	    -17.27372961	      7.34672376	     -3.51254915	     -0.79099345	     20.51401970	     -3.50895835	      0.02377243	    -70.41026738	      9.35833237	      0.36544809	      1.01782168	      3.26417177	      4.96311867	      0.13584920
      0.71683333	      0.64272813	     -1.87172208	     -1.98851790	     -0.47326232	      1.06752188	      0.32521198	     10.57769290	      6.89207415	     -3.87668752	    -17.11367697	      7.45747634	     -3.53591795	     -0.79803893	     21.05500707	     -3.34655377	      0.10019694	    -69.96839791	      9.73447827	     -0.05245432	      0.95741571	      3.22319258	      4.83104106	      0.23022727
      0.72100000	      0.65548901	     -1.78109562	     -2.03652824	     -0.46818059	      1.06820879	      0.32547299	     10.16996785	      6.82531648	     -3.72417335	    -16.92873889	      7.54460648	     -3.56829314	     -0.80494624	     21.59907706	     -3.20261937	      0.19116784	    -69.46024726	     10.01493874	     -0.39063386	      0.89950919	      3.18145530	      4.71269259	      0.31201625
      0.72516667	      0.67125335	     -1.68901952	     -2.09035166	     -0.46305243	      1.06888879	      0.32570206	      9.75236855	      6.75611938	     -3.56365915	    -16.73764426	      7.62504346	     -3.63274739	     -0.81256974	     22.10851912	     -3.05884529	      0.26579677	    -68.86910373	     10.28178633	     -0.71317834	      0.84063337	      3.14812504	      4.59939725	      0.38766297
      0.72933333	      0.68317394	     -1.59650092	     -2.13900179	     -0.45793042	      1.06952520	      0.32592443	      9.33682769	      6.68828992	     -3.39197925	    -16.53771623	      7.69762560	     -3.72987998	     -0.82179910	     22.60138171	     -2.91480759	      0.33196829	    -68.20426895	     10.52943987	     -1.03659015	      0.77345959	      3.11252266	      4.48090976	      0.46364206
      0.73350000	      0.65026402	     -1.53040966	     -2.17449888	     -0.45284168	      1.07003282	      0.32606516	      8.98180820	      6.64433406	     -3.30734133	    -16.34528536	      7.73031442	     -3.75856925	     -0.82387002	     23.13440001	     -2.79421060	      0.40484427	    -67.48350872	     10.63120987	     -1.11184582	      0.75897780	      3.01395896	      4.48598989	      0.47031782
      0.73766667	      0.69526504	     -1.45211190	     -2.19203888	     -0.44762248	      1.07066718	      0.32626706	      8.49598437	      6.59663325	     -3.04672475	    -16.09754625	      7.82153849	     -3.94433423	     -0.83400580	     23.53463182	     -2.65932617	      0.48820824	    -66.66797048	     10.94974138	     -1.53085974	      0.69444676	      3.09365404	      4.28958035	      0.55476062
      0.74183333	      0.69584540	     -1.37537841	     -2.25347792	     -0.44247246	      1.07118048	      0.32645796	      8.08034041	      6.55370747	     -2.80083395	    -15.87574865	      7.87306951	     -4.18195711	     -0.84797065	     23.96275265	     -2.54153346	      0.50676501	    -65.78444538	     11.14069753	     -1.90357199	      0.61128630	      3.06273322	      4.19365952	      0.62063814
      0.74600000	      0.69902433	     -1.31757576	     -2.28266289	     -0.43731886	      1.07164198	      0.32661109	      7.65416909	      6.53165159	     -2.57082933	    -15.63593163	      7.90549255	     -4.41299846	     -0.86241999	     24.37066995	     -2.43475300	      0.55525698	    -64.83626700	     11.26708207	     -2.19553277	      0.52827034	      3.04154698	      4.12271187	      0.67898264
      0.75016667	      0.68863286	     -1.24809849	     -2.36833526	     -0.43221790	      1.07204068	      0.32682423	      7.25636753	      6.50432995	     -2.28820943	    -15.42038142	      7.89925118	     -4.82580254	     -0.89163647	     24.76199650	     -2.34242928	      0.52195325	    -63.81239391	     11.35661162	     -2.61053776	      0.36772858	      2.92603359	      4.03036595	      0.75941251
      0.75433333	      0.68729603	     -1.22283078	     -2.33652118	     -0.42699885	      1.07240774	      0.32684636	      6.81476665	      6.51028050	     -2.08222756	    -15.14248119	      7.93512970	     -4.98742775	     -0.90513050	     25.12891968	     -2.24656045	      0.62259411	    -62.73365020	     11.46469622	     -2.78773331	      0.29224547	      2.97948633	      4.02148115	      0.79738009
      0.75850000	      0.68603637	     -1.18917407	     -2.39609169	     -0.42186938	      1.07273571	      0.32709220	      6.38191957	      6.53444895	     -1.70876016	    -14.87908145	      7.89596330	     -5.49493158	     -0.95020633	     25.46139267	     -2.19551855	      0.59363585	    -61.57772949	     11.48792421	     -3.23681356	      0.05885104	      2.87540870	      3.94972227	      0.86628343
      0.76266667	      0.61453050	     -1.16614126	     -2.36318969	     -0.41667512	      1.07289404	      0.32689688	      6.03809716	      6.52364503	     -1.58964543	    -14.65534142	      7.94471557	     -5.57061878	     -0.95590689	     25.85679006	     -2.08311728	      0.69892945	    -60.37405146	     11.59997446	     -3.31362462	      0.02902074	      2.86656250	      3.99673673	      0.86854625
